<svg version="1.1" id="Layer_1" xmlns="http://www.w3.org/2000/svg" xmlns:xlink="http://www.w3.org/1999/xlink" x="0px" y="0px"
	 width="100%" viewBox="0 0 1600 531" enable-background="new 0 0 1600 531" xml:space="preserve">
<path fill="#FFFFFF" opacity="1.000000" stroke="none" 
	d="
M1028.000000,532.000000 
	C685.373474,532.000000 343.246887,532.000000 1.060175,532.000000 
	C1.060175,355.060883 1.060175,178.121750 1.060175,1.091303 
	C534.209900,1.091303 1067.419800,1.091303 1600.814941,1.091303 
	C1600.814941,177.999847 1600.814941,354.999908 1600.814941,532.000000 
	C1410.121704,532.000000 1219.310791,532.000000 1028.000000,532.000000 
M710.027710,254.036118 
	C710.027710,254.036118 710.066162,254.094864 709.379883,253.415939 
	C710.287537,246.765579 711.195251,240.115219 712.129272,233.271484 
	C706.348755,233.271484 701.232788,233.271484 696.088928,233.271484 
	C690.755066,272.820160 685.444031,312.200073 680.101562,351.813354 
	C685.700073,351.813354 691.122070,351.813354 696.639709,351.813354 
	C699.764404,330.102417 703.021362,308.622833 705.892822,287.091797 
	C707.630554,274.061218 713.527100,263.577637 723.739807,255.511154 
	C733.711487,247.635056 745.076050,245.384552 757.739441,248.123398 
	C759.629822,242.727036 761.447327,237.538971 763.405396,231.949478 
	C753.791687,229.597565 744.940918,229.777435 736.055664,232.732132 
	C724.631714,236.531052 716.672241,244.442642 710.027710,254.036118 
M145.187607,356.662018 
	C146.504288,358.091797 147.820984,359.521545 148.939453,361.615936 
	C141.726257,368.001282 134.435562,374.301880 127.327011,380.801636 
	C122.565575,385.155243 121.299217,390.731720 123.373306,396.741180 
	C125.398537,402.609100 129.929169,405.814392 136.042374,406.518066 
	C141.423950,407.137512 145.519348,404.406006 149.425140,401.064148 
	C157.211578,394.402008 165.137741,387.903137 173.500839,381.895630 
	C218.720169,412.481537 267.587921,419.619873 319.264618,402.641998 
	C383.764099,381.451324 427.509216,321.234283 429.282501,253.358185 
	C430.016541,225.262024 424.094696,198.758499 411.074188,173.256409 
	C414.900909,169.686661 418.727631,166.116928 422.832184,162.287979 
	C426.323029,166.246521 429.355408,169.685165 432.858704,173.657837 
	C441.147369,153.469193 449.168854,133.931366 457.678741,113.203918 
	C436.084198,118.800537 415.582916,124.113815 394.538788,129.567780 
	C397.686890,133.406601 400.357758,136.663483 403.279785,140.226593 
	C399.665192,142.976196 396.406311,145.455215 392.994141,147.240616 
	C392.801117,146.795700 392.704071,146.267853 392.401428,145.917633 
	C353.133118,100.472679 303.417786,80.628944 244.044189,88.473328 
	C194.967682,94.957260 156.622543,120.395714 129.784393,162.034668 
	C108.508400,195.044037 100.682610,231.398865 105.775467,270.496918 
	C108.579407,292.022827 115.728561,311.979187 126.113159,331.519562 
	C116.052620,340.457184 105.900383,349.294373 95.963806,358.367737 
	C89.365601,364.392731 88.933838,373.363556 94.548569,379.738434 
	C99.739670,385.632355 109.029716,386.100769 115.614525,380.670654 
	C119.074913,377.817108 122.295372,374.673645 125.738243,371.797638 
	C132.061111,366.515839 138.468399,361.335114 145.187607,356.662018 
M1500.557251,329.914124 
	C1489.325928,314.726105 1478.094604,299.538116 1466.848877,284.330536 
	C1483.124390,265.858307 1499.104614,247.721252 1515.687378,228.900436 
	C1500.308472,228.900436 1486.153076,228.802261 1472.002686,229.022278 
	C1470.194214,229.050415 1467.936523,230.316025 1466.691772,231.721344 
	C1456.089722,243.691895 1445.680908,255.833527 1435.197266,267.909149 
	C1432.682495,270.805786 1430.103882,273.647003 1426.679321,277.497681 
	C1426.679321,237.477753 1426.679321,198.890640 1426.679321,160.378708 
	C1413.862549,160.378708 1401.454712,160.378708 1389.055664,160.378708 
	C1389.055664,224.326706 1389.055664,287.940002 1389.055664,351.639008 
	C1401.767578,351.639008 1414.286011,351.639008 1427.131958,351.639008 
	C1427.131958,331.015686 1427.131958,310.787781 1427.131958,289.472534 
	C1428.830566,291.940552 1429.934570,293.504700 1430.998169,295.095856 
	C1442.912964,312.919861 1454.875000,330.712769 1466.670166,348.615570 
	C1468.323853,351.125702 1470.018188,352.161774 1473.065796,352.111237 
	C1484.395508,351.923431 1495.729980,352.036285 1507.062744,352.036255 
	C1510.121948,352.036255 1513.181030,352.036255 1516.251953,352.036255 
	C1516.187988,351.214661 1516.233276,351.019043 1516.155884,350.914276 
	C1511.114746,344.093140 1506.063843,337.279297 1500.557251,329.914124 
M919.500183,172.409546 
	C910.402405,172.409546 901.304626,172.409546 892.237915,172.409546 
	C892.237915,184.372879 892.237915,195.652618 892.237915,207.496490 
	C909.353821,207.496490 926.231934,207.496490 943.482117,207.496490 
	C943.482117,232.038422 943.482117,256.014465 943.482117,279.990479 
	C943.482117,303.924255 943.482117,327.858032 943.482117,351.704712 
	C957.054443,351.704712 969.966614,351.704712 983.062988,351.704712 
	C983.062988,327.388977 983.062866,303.404175 983.062866,279.419342 
	C983.062866,255.498642 983.062988,231.577942 983.062988,207.194763 
	C1000.485413,207.194763 1017.239380,207.194763 1034.094238,207.194763 
	C1034.094238,195.454544 1034.094238,184.184555 1034.094238,172.409622 
	C996.062439,172.409622 958.281372,172.409622 919.500183,172.409546 
M1136.096680,288.556305 
	C1124.508301,298.538544 1121.903198,311.544312 1124.714478,325.682373 
	C1127.676270,340.576904 1137.891602,349.375519 1152.136963,352.878540 
	C1172.952881,357.997314 1191.986816,355.264252 1207.128418,336.860535 
	C1207.128418,342.262207 1207.128418,346.965240 1207.128418,351.789276 
	C1219.064209,351.789276 1230.478394,351.789276 1241.727661,351.789276 
	C1241.976196,351.413025 1242.137451,351.283142 1242.135620,351.155548 
	C1241.751221,323.691040 1242.085571,296.190460 1240.724487,268.774017 
	C1239.666870,247.471756 1226.757446,232.530426 1207.786743,228.132034 
	C1191.972290,224.465454 1176.119751,224.861938 1160.457153,229.470078 
	C1149.691162,232.637573 1140.024170,237.703323 1131.289551,245.938065 
	C1138.495605,252.637970 1145.404053,259.061127 1152.414917,265.579498 
	C1153.917603,264.226440 1155.706421,262.497833 1157.616821,260.916229 
	C1166.104004,253.889709 1175.813354,250.783279 1186.824463,251.969864 
	C1198.979980,253.279739 1207.902832,263.018127 1206.642944,273.519836 
	C1196.190186,274.025848 1185.706543,274.107544 1175.317505,275.141266 
	C1161.523438,276.513855 1148.066040,279.408142 1136.096680,288.556305 
M1282.125000,243.611221 
	C1255.465088,268.273071 1256.271606,313.490875 1282.217163,337.374908 
	C1307.226929,360.397400 1354.619873,361.116699 1374.772827,338.436951 
	C1366.581787,329.822845 1358.378784,321.196198 1350.088135,312.477478 
	C1349.199951,313.184448 1348.615234,313.511810 1348.211304,313.991486 
	C1336.470703,327.939697 1306.177734,323.390625 1301.389893,298.724579 
	C1300.486206,294.070068 1300.589111,289.055023 1301.141479,284.312775 
	C1303.111328,267.400055 1317.622803,256.576508 1335.005371,259.944702 
	C1340.501221,261.009613 1345.497314,264.652283 1351.144165,267.314148 
	C1358.593506,259.487732 1366.693115,250.978027 1375.338257,241.895340 
	C1371.078857,238.858231 1367.521973,235.342712 1363.247803,233.432571 
	C1334.532837,220.599869 1307.519043,223.336914 1282.125000,243.611221 
M563.435974,174.069839 
	C555.096191,233.273621 546.756348,292.477386 538.408447,351.738770 
	C544.893921,351.738770 550.821228,351.738770 556.675598,351.738770 
	C560.562134,324.029846 564.405945,296.625641 568.313110,268.769562 
	C570.305542,268.769562 572.101379,268.798920 573.896118,268.764862 
	C587.378113,268.509033 600.935669,269.052246 614.325745,267.803467 
	C640.297852,265.381287 664.197632,253.320236 668.832764,218.397873 
	C671.052734,201.671753 665.174622,186.995956 650.921875,180.092850 
	C643.372375,176.436356 634.716431,173.724655 626.406738,173.245880 
	C606.810059,172.116776 587.121643,172.565552 567.469910,172.441025 
	C566.240417,172.433228 565.007324,172.985336 563.435974,174.069839 
M1064.491089,344.381287 
	C1064.661133,325.726044 1064.501587,307.060150 1065.102539,288.418793 
	C1065.610352,272.666199 1072.353638,263.317383 1085.149780,260.597076 
	C1091.013306,259.350555 1097.286133,259.844879 1103.370361,259.898041 
	C1106.532593,259.925629 1109.688232,260.711060 1113.117432,261.192108 
	C1113.117432,250.358322 1113.121216,240.041794 1113.109863,229.725266 
	C1113.109009,228.911392 1113.001953,228.097656 1112.947998,227.337021 
	C1095.579712,223.656174 1078.636841,225.040939 1064.562378,248.240311 
	C1064.562378,241.274582 1064.562378,235.248886 1064.562378,229.140594 
	C1051.549072,229.140594 1039.120728,229.140594 1026.450928,229.140594 
	C1026.450928,270.110535 1026.450928,310.834534 1026.450928,351.798462 
	C1039.113892,351.798462 1051.543213,351.798462 1064.488525,351.798462 
	C1064.488525,349.601776 1064.488525,347.472961 1064.491089,344.381287 
M808.625671,234.057632 
	C778.129761,245.466217 760.348145,270.291534 759.475037,302.678009 
	C758.907166,323.744965 770.306335,341.839813 789.345093,350.271912 
	C800.170898,355.066589 811.646667,356.209839 823.065369,354.661469 
	C855.609680,350.248535 878.334412,329.151489 885.609375,297.560059 
	C891.819824,270.591278 880.672241,245.443527 857.473511,235.372147 
	C841.793030,228.564743 825.609985,228.714081 808.625671,234.057632 
z"/>
<path fill="#085E87" opacity="1.000000" stroke="none" 
	d="
M393.147461,147.934235 
	C396.406311,145.455215 399.665192,142.976196 403.279785,140.226593 
	C400.357758,136.663483 397.686890,133.406601 394.538788,129.567780 
	C415.582916,124.113815 436.084198,118.800537 457.678741,113.203918 
	C449.168854,133.931366 441.147369,153.469193 432.858704,173.657837 
	C429.355408,169.685165 426.323029,166.246521 422.832184,162.287979 
	C418.727631,166.116928 414.900909,169.686661 410.639709,173.630219 
	C403.392700,179.747177 396.580139,185.490326 389.535156,191.439789 
	C355.460144,221.183228 321.614258,250.716553 287.776031,280.258606 
	C257.319977,306.847870 226.863876,333.437195 196.453781,360.079010 
	C195.338287,361.056274 194.709473,362.589111 193.497101,363.896057 
	C186.428970,369.731659 179.717575,375.534241 173.006195,381.336823 
	C165.137741,387.903137 157.211578,394.402008 149.425140,401.064148 
	C145.519348,404.406006 141.423950,407.137512 136.042374,406.518066 
	C129.929169,405.814392 125.398537,402.609100 123.373306,396.741180 
	C121.299217,390.731720 122.565575,385.155243 127.327011,380.801636 
	C134.435562,374.301880 141.726257,368.001282 149.370193,361.240601 
	C156.211044,355.155243 162.621155,349.445251 169.358521,343.707092 
	C193.375198,323.019073 217.064972,302.359711 240.753937,281.699371 
	C276.602631,250.433929 312.469635,219.189468 348.285461,187.886414 
	C356.898529,180.358566 365.340973,172.635483 374.183594,164.884186 
	C380.719330,159.155518 386.933380,153.544876 393.147461,147.934235 
z"/>
<path fill="#152B36" opacity="1.000000" stroke="none" 
	d="
M1500.785400,330.189514 
	C1506.063843,337.279297 1511.114746,344.093140 1516.155884,350.914276 
	C1516.233276,351.019043 1516.187988,351.214661 1516.251953,352.036255 
	C1513.181030,352.036255 1510.121948,352.036255 1507.062744,352.036255 
	C1495.729980,352.036285 1484.395508,351.923431 1473.065796,352.111237 
	C1470.018188,352.161774 1468.323853,351.125702 1466.670166,348.615570 
	C1454.875000,330.712769 1442.912964,312.919861 1430.998169,295.095856 
	C1429.934570,293.504700 1428.830566,291.940552 1427.131958,289.472534 
	C1427.131958,310.787781 1427.131958,331.015686 1427.131958,351.639008 
	C1414.286011,351.639008 1401.767578,351.639008 1389.055664,351.639008 
	C1389.055664,287.940002 1389.055664,224.326706 1389.055664,160.378708 
	C1401.454712,160.378708 1413.862549,160.378708 1426.679321,160.378708 
	C1426.679321,198.890640 1426.679321,237.477753 1426.679321,277.497681 
	C1430.103882,273.647003 1432.682495,270.805786 1435.197266,267.909149 
	C1445.680908,255.833527 1456.089722,243.691895 1466.691772,231.721344 
	C1467.936523,230.316025 1470.194214,229.050415 1472.002686,229.022278 
	C1486.153076,228.802261 1500.308472,228.900436 1515.687378,228.900436 
	C1499.104614,247.721252 1483.124390,265.858307 1466.848877,284.330536 
	C1478.094604,299.538116 1489.325928,314.726105 1500.785400,330.189514 
z"/>
<path fill="#19313A" opacity="1.000000" stroke="none" 
	d="
M393.070801,147.587433 
	C386.933380,153.544876 380.719330,159.155518 373.914490,164.701309 
	C372.854980,163.948898 372.435669,163.220856 371.910461,162.579544 
	C337.177856,120.169113 277.857300,101.958359 226.018509,119.625908 
	C171.962845,138.049026 140.085632,176.185760 132.038956,233.077667 
	C128.060654,261.205078 133.481888,287.954468 146.885269,313.312775 
	C139.943100,319.358459 133.117905,325.088989 126.292702,330.819489 
	C115.728561,311.979187 108.579407,292.022827 105.775467,270.496918 
	C100.682610,231.398865 108.508400,195.044037 129.784393,162.034668 
	C156.622543,120.395714 194.967682,94.957260 244.044189,88.473328 
	C303.417786,80.628944 353.133118,100.472679 392.401428,145.917633 
	C392.704071,146.267853 392.801117,146.795700 393.070801,147.587433 
z"/>
<path fill="#162B36" opacity="1.000000" stroke="none" 
	d="
M920.000244,172.409576 
	C958.281372,172.409622 996.062439,172.409622 1034.094238,172.409622 
	C1034.094238,184.184555 1034.094238,195.454544 1034.094238,207.194763 
	C1017.239380,207.194763 1000.485413,207.194763 983.062988,207.194763 
	C983.062988,231.577942 983.062866,255.498642 983.062866,279.419342 
	C983.062866,303.404175 983.062988,327.388977 983.062988,351.704712 
	C969.966614,351.704712 957.054443,351.704712 943.482117,351.704712 
	C943.482117,327.858032 943.482117,303.924255 943.482117,279.990479 
	C943.482117,256.014465 943.482117,232.038422 943.482117,207.496490 
	C926.231934,207.496490 909.353821,207.496490 892.237915,207.496490 
	C892.237915,195.652618 892.237915,184.372879 892.237915,172.409546 
	C901.304626,172.409546 910.402405,172.409546 920.000244,172.409576 
z"/>
<path fill="#19303A" opacity="1.000000" stroke="none" 
	d="
M389.767609,191.233475 
	C396.580139,185.490326 403.392700,179.747177 410.547546,173.959625 
	C424.094696,198.758499 430.016541,225.262024 429.282501,253.358185 
	C427.509216,321.234283 383.764099,381.451324 319.264618,402.641998 
	C267.587921,419.619873 218.720169,412.481537 173.253510,381.616211 
	C179.717575,375.534241 186.428970,369.731659 193.851456,364.003662 
	C199.042664,366.569733 203.384262,369.363617 208.030731,371.491974 
	C218.880249,376.461731 229.891586,381.061890 242.246231,382.332031 
	C246.568665,383.147339 250.647491,383.661346 255.025940,384.501434 
	C263.619812,384.567352 271.942017,384.652679 280.203217,383.984131 
	C308.204132,381.718109 332.897400,371.082245 354.242401,353.044220 
	C384.170593,327.752747 400.436127,295.223602 402.599518,256.173187 
	C403.204132,245.259171 400.836456,234.180511 399.917908,222.761505 
	C397.638214,214.542175 395.272919,206.738724 392.918518,198.575760 
	C391.875488,195.888657 390.821564,193.561066 389.767609,191.233475 
z"/>
<path fill="#162B36" opacity="1.000000" stroke="none" 
	d="
M1136.367554,288.323151 
	C1148.066040,279.408142 1161.523438,276.513855 1175.317505,275.141266 
	C1185.706543,274.107544 1196.190186,274.025848 1206.642944,273.519836 
	C1207.902832,263.018127 1198.979980,253.279739 1186.824463,251.969864 
	C1175.813354,250.783279 1166.104004,253.889709 1157.616821,260.916229 
	C1155.706421,262.497833 1153.917603,264.226440 1152.414917,265.579498 
	C1145.404053,259.061127 1138.495605,252.637970 1131.289551,245.938065 
	C1140.024170,237.703323 1149.691162,232.637573 1160.457153,229.470078 
	C1176.119751,224.861938 1191.972290,224.465454 1207.786743,228.132034 
	C1226.757446,232.530426 1239.666870,247.471756 1240.724487,268.774017 
	C1242.085571,296.190460 1241.751221,323.691040 1242.135620,351.155548 
	C1242.137451,351.283142 1241.976196,351.413025 1241.727661,351.789276 
	C1230.478394,351.789276 1219.064209,351.789276 1207.128418,351.789276 
	C1207.128418,346.965240 1207.128418,342.262207 1207.128418,336.860535 
	C1191.986816,355.264252 1172.952881,357.997314 1152.136963,352.878540 
	C1137.891602,349.375519 1127.676270,340.576904 1124.714478,325.682373 
	C1121.903198,311.544312 1124.508301,298.538544 1136.367554,288.323151 
M1175.831299,329.000946 
	C1177.990601,328.997681 1180.180298,329.229767 1182.304199,328.953888 
	C1199.241455,326.754059 1210.406250,317.698364 1206.504761,298.303284 
	C1200.533569,298.303284 1194.461060,297.565002 1188.652954,298.488953 
	C1181.283691,299.661194 1173.675415,301.221741 1167.000000,304.372772 
	C1159.162720,308.072235 1157.719727,319.063538 1163.847778,324.015686 
	C1166.894165,326.477478 1171.201172,327.379333 1175.831299,329.000946 
z"/>
<path fill="#77919A" opacity="1.000000" stroke="none" 
	d="
M126.202927,331.169525 
	C133.117905,325.088989 139.943100,319.358459 147.216217,313.238342 
	C148.341675,312.365143 149.065948,311.935089 149.690094,311.390289 
	C185.070190,280.509613 220.434280,249.610657 255.817810,218.733932 
	C273.130402,203.626450 290.347107,188.403259 307.939423,173.627991 
	C310.826141,171.203522 315.411407,169.819092 319.251831,169.732407 
	C325.735199,169.586090 330.269104,173.927017 332.220520,180.212952 
	C334.410980,187.268860 331.363770,192.487885 326.284790,196.919418 
	C311.982544,209.398438 297.628601,221.818146 283.319672,234.289505 
	C244.906662,267.769409 206.499084,301.255554 168.133179,334.789337 
	C166.840775,335.918976 166.019775,337.587860 164.624237,339.006805 
	C157.793121,344.709564 151.316803,350.410889 144.840500,356.112244 
	C138.468399,361.335114 132.061111,366.515839 125.738243,371.797638 
	C122.295372,374.673645 119.074913,377.817108 115.614525,380.670654 
	C109.029716,386.100769 99.739670,385.632355 94.548569,379.738434 
	C88.933838,373.363556 89.365601,364.392731 95.963806,358.367737 
	C105.900383,349.294373 116.052620,340.457184 126.202927,331.169525 
z"/>
<path fill="#162B36" opacity="1.000000" stroke="none" 
	d="
M1282.384766,243.370941 
	C1307.519043,223.336914 1334.532837,220.599869 1363.247803,233.432571 
	C1367.521973,235.342712 1371.078857,238.858231 1375.338257,241.895340 
	C1366.693115,250.978027 1358.593506,259.487732 1351.144165,267.314148 
	C1345.497314,264.652283 1340.501221,261.009613 1335.005371,259.944702 
	C1317.622803,256.576508 1303.111328,267.400055 1301.141479,284.312775 
	C1300.589111,289.055023 1300.486206,294.070068 1301.389893,298.724579 
	C1306.177734,323.390625 1336.470703,327.939697 1348.211304,313.991486 
	C1348.615234,313.511810 1349.199951,313.184448 1350.088135,312.477478 
	C1358.378784,321.196198 1366.581787,329.822845 1374.772827,338.436951 
	C1354.619873,361.116699 1307.226929,360.397400 1282.217163,337.374908 
	C1256.271606,313.490875 1255.465088,268.273071 1282.384766,243.370941 
z"/>
<path fill="#182D37" opacity="1.000000" stroke="none" 
	d="
M563.605957,173.673401 
	C565.007324,172.985336 566.240417,172.433228 567.469910,172.441025 
	C587.121643,172.565552 606.810059,172.116776 626.406738,173.245880 
	C634.716431,173.724655 643.372375,176.436356 650.921875,180.092850 
	C665.174622,186.995956 671.052734,201.671753 668.832764,218.397873 
	C664.197632,253.320236 640.297852,265.381287 614.325745,267.803467 
	C600.935669,269.052246 587.378113,268.509033 573.896118,268.764862 
	C572.101379,268.798920 570.305542,268.769562 568.313110,268.769562 
	C564.405945,296.625641 560.562134,324.029846 556.675598,351.738770 
	C550.821228,351.738770 544.893921,351.738770 538.408447,351.738770 
	C546.756348,292.477386 555.096191,233.273621 563.605957,173.673401 
M590.534180,189.001694 
	C586.923645,189.001694 583.313110,189.001694 579.573059,189.001694 
	C576.665649,209.756271 573.834045,229.949234 571.026245,250.145493 
	C570.963928,250.593582 571.172668,251.079346 571.301697,251.813721 
	C582.631592,251.813721 593.947510,252.118774 605.238953,251.724136 
	C615.604797,251.361816 625.748840,249.378372 634.531250,243.363617 
	C645.805298,235.642441 650.204102,224.470917 648.498413,211.304337 
	C646.834778,198.462265 637.462952,192.594193 625.786377,191.057953 
	C614.471863,189.569366 602.954224,189.624603 590.534180,189.001694 
z"/>
<path fill="#162C36" opacity="1.000000" stroke="none" 
	d="
M1064.489746,344.862701 
	C1064.488525,347.472961 1064.488525,349.601776 1064.488525,351.798462 
	C1051.543213,351.798462 1039.113892,351.798462 1026.450928,351.798462 
	C1026.450928,310.834534 1026.450928,270.110535 1026.450928,229.140594 
	C1039.120728,229.140594 1051.549072,229.140594 1064.562378,229.140594 
	C1064.562378,235.248886 1064.562378,241.274582 1064.562378,248.240311 
	C1078.636841,225.040939 1095.579712,223.656174 1112.947998,227.337021 
	C1113.001953,228.097656 1113.109009,228.911392 1113.109863,229.725266 
	C1113.121216,240.041794 1113.117432,250.358322 1113.117432,261.192108 
	C1109.688232,260.711060 1106.532593,259.925629 1103.370361,259.898041 
	C1097.286133,259.844879 1091.013306,259.350555 1085.149780,260.597076 
	C1072.353638,263.317383 1065.610352,272.666199 1065.102539,288.418793 
	C1064.501587,307.060150 1064.661133,325.726044 1064.489746,344.862701 
z"/>
<path fill="#172C37" opacity="1.000000" stroke="none" 
	d="
M809.022949,233.994980 
	C825.609985,228.714081 841.793030,228.564743 857.473511,235.372147 
	C880.672241,245.443527 891.819824,270.591278 885.609375,297.560059 
	C878.334412,329.151489 855.609680,350.248535 823.065369,354.661469 
	C811.646667,356.209839 800.170898,355.066589 789.345093,350.271912 
	C770.306335,341.839813 758.907166,323.744965 759.475037,302.678009 
	C760.348145,270.291534 778.129761,245.466217 809.022949,233.994980 
M802.815491,337.937073 
	C816.087646,341.706146 828.918396,340.453522 840.898682,333.694946 
	C857.268433,324.460144 865.492371,309.867188 868.241455,291.511475 
	C872.279968,264.546448 854.099243,240.005753 819.915710,246.581985 
	C796.396790,251.106537 779.834778,271.635712 778.110901,295.711670 
	C776.603027,316.769958 784.295288,330.271332 802.815491,337.937073 
z"/>
<path fill="#182D37" opacity="1.000000" stroke="none" 
	d="
M709.984314,253.980896 
	C716.672241,244.442642 724.631714,236.531052 736.055664,232.732132 
	C744.940918,229.777435 753.791687,229.597565 763.405396,231.949478 
	C761.447327,237.538971 759.629822,242.727036 757.739441,248.123398 
	C745.076050,245.384552 733.711487,247.635056 723.739807,255.511154 
	C713.527100,263.577637 707.630554,274.061218 705.892822,287.091797 
	C703.021362,308.622833 699.764404,330.102417 696.639709,351.813354 
	C691.122070,351.813354 685.700073,351.813354 680.101562,351.813354 
	C685.444031,312.200073 690.755066,272.820160 696.088928,233.271484 
	C701.232788,233.271484 706.348755,233.271484 712.129272,233.271484 
	C711.195251,240.115219 710.287537,246.765579 709.473877,253.602341 
	C709.570312,254.090515 709.572754,254.392288 709.575134,254.694061 
	C709.711487,254.456329 709.847900,254.218613 709.984314,253.980896 
z"/>
<path fill="#19303A" opacity="1.000000" stroke="none" 
	d="
M145.014053,356.387146 
	C151.316803,350.410889 157.793121,344.709564 164.825943,339.252594 
	C166.598724,340.909760 167.815002,342.322510 169.031250,343.735291 
	C162.621155,349.445251 156.211044,355.155243 149.469299,360.908264 
	C147.820984,359.521545 146.504288,358.091797 145.014053,356.387146 
z"/>
<path fill="#FFFFFF" opacity="1.000000" stroke="none" 
	d="
M169.358536,343.707092 
	C167.815002,342.322510 166.598724,340.909760 165.180756,339.251190 
	C166.019775,337.587860 166.840775,335.918976 168.133179,334.789337 
	C206.499084,301.255554 244.906662,267.769409 283.319672,234.289505 
	C297.628601,221.818146 311.982544,209.398438 326.284790,196.919418 
	C331.363770,192.487885 334.410980,187.268860 332.220520,180.212952 
	C330.269104,173.927017 325.735199,169.586090 319.251831,169.732407 
	C315.411407,169.819092 310.826141,171.203522 307.939423,173.627991 
	C290.347107,188.403259 273.130402,203.626450 255.817810,218.733932 
	C220.434280,249.610657 185.070190,280.509613 149.690094,311.390289 
	C149.065948,311.935089 148.341675,312.365143 147.333191,312.923157 
	C133.481888,287.954468 128.060654,261.205078 132.038956,233.077667 
	C140.085632,176.185760 171.962845,138.049026 226.018509,119.625908 
	C277.857300,101.958359 337.177856,120.169113 371.910461,162.579544 
	C372.435669,163.220856 372.854980,163.948898 373.592834,164.819336 
	C365.340973,172.635483 356.898529,180.358566 348.285461,187.886414 
	C312.469635,219.189468 276.602631,250.433929 240.753937,281.699371 
	C217.064972,302.359711 193.375198,323.019073 169.358536,343.707092 
z"/>
<path fill="#FFFFFF" opacity="1.000000" stroke="none" 
	d="
M389.535156,191.439789 
	C390.821564,193.561066 391.875488,195.888657 392.605774,198.693390 
	C380.208221,209.630173 368.102325,220.053192 356.066162,230.556122 
	C314.561798,266.773468 273.082581,303.019592 231.591492,339.252167 
	C226.173767,343.983276 225.222839,351.172974 229.382202,356.091736 
	C233.798538,361.314362 241.027924,361.646667 246.689346,356.717346 
	C268.025726,338.139832 289.310089,319.502563 310.632477,300.908936 
	C340.357025,274.988434 370.098175,249.086990 399.832275,223.177383 
	C400.836456,234.180511 403.204132,245.259171 402.599518,256.173187 
	C400.436127,295.223602 384.170593,327.752747 354.242401,353.044220 
	C332.897400,371.082245 308.204132,381.718109 280.203217,383.984131 
	C271.942017,384.652679 263.619812,384.567352 255.130325,384.157776 
	C257.265839,381.349396 259.553833,379.161835 261.934113,377.079834 
	C279.234375,361.947571 296.562775,346.847504 313.856689,331.708069 
	C316.736450,329.187042 320.621368,326.333282 316.818115,322.312531 
	C313.127472,318.410858 309.910614,322.015137 307.039276,324.514008 
	C292.088715,337.525269 277.114990,350.510468 262.236511,363.603790 
	C255.389236,369.629456 248.741074,375.881378 242.002625,382.030731 
	C229.891586,381.061890 218.880249,376.461731 208.030731,371.491974 
	C203.384262,369.363617 199.042664,366.569733 194.208191,363.970642 
	C194.709473,362.589111 195.338287,361.056274 196.453781,360.079010 
	C226.863876,333.437195 257.319977,306.847870 287.776031,280.258606 
	C321.614258,250.716553 355.460144,221.183228 389.535156,191.439789 
M335.833344,320.130676 
	C328.161438,322.779907 325.228638,329.393036 329.395050,334.974945 
	C332.157104,338.675262 335.926331,339.957886 340.377502,338.380371 
	C344.643250,336.868622 347.010681,332.664703 346.319397,328.155884 
	C345.565186,323.236359 342.624634,320.789490 335.833344,320.130676 
M371.224426,306.250671 
	C365.704468,302.965302 361.394135,303.307861 357.928802,307.307373 
	C355.170471,310.490906 355.021759,315.906219 357.602692,319.183990 
	C360.816376,323.265350 366.290161,324.105804 370.443970,321.155731 
	C375.107819,317.843475 375.627228,312.318054 371.224426,306.250671 
z"/>
<path fill="#78929A" opacity="1.000000" stroke="none" 
	d="
M399.917877,222.761505 
	C370.098175,249.086990 340.357025,274.988434 310.632477,300.908936 
	C289.310089,319.502563 268.025726,338.139832 246.689346,356.717346 
	C241.027924,361.646667 233.798538,361.314362 229.382202,356.091736 
	C225.222839,351.172974 226.173767,343.983276 231.591492,339.252167 
	C273.082581,303.019592 314.561798,266.773468 356.066162,230.556122 
	C368.102325,220.053192 380.208221,209.630173 392.594849,199.052902 
	C395.272919,206.738724 397.638214,214.542175 399.917877,222.761505 
z"/>
<path fill="#7A929B" opacity="1.000000" stroke="none" 
	d="
M242.246231,382.332031 
	C248.741074,375.881378 255.389236,369.629456 262.236511,363.603790 
	C277.114990,350.510468 292.088715,337.525269 307.039276,324.514008 
	C309.910614,322.015137 313.127472,318.410858 316.818115,322.312531 
	C320.621368,326.333282 316.736450,329.187042 313.856689,331.708069 
	C296.562775,346.847504 279.234375,361.947571 261.934113,377.079834 
	C259.553833,379.161835 257.265839,381.349396 254.830719,383.831696 
	C250.647491,383.661346 246.568665,383.147339 242.246231,382.332031 
z"/>
<path fill="#FFFFFF" opacity="1.000000" stroke="none" 
	d="
M1175.384521,328.993896 
	C1171.201172,327.379333 1166.894165,326.477478 1163.847778,324.015686 
	C1157.719727,319.063538 1159.162720,308.072235 1167.000000,304.372772 
	C1173.675415,301.221741 1181.283691,299.661194 1188.652954,298.488953 
	C1194.461060,297.565002 1200.533569,298.303284 1206.504761,298.303284 
	C1210.406250,317.698364 1199.241455,326.754059 1182.304199,328.953888 
	C1180.180298,329.229767 1177.990601,328.997681 1175.384521,328.993896 
z"/>
<path fill="#FFFFFF" opacity="1.000000" stroke="none" 
	d="
M591.029968,189.001755 
	C602.954224,189.624603 614.471863,189.569366 625.786377,191.057953 
	C637.462952,192.594193 646.834778,198.462265 648.498413,211.304337 
	C650.204102,224.470917 645.805298,235.642441 634.531250,243.363617 
	C625.748840,249.378372 615.604797,251.361816 605.238953,251.724136 
	C593.947510,252.118774 582.631592,251.813721 571.301697,251.813721 
	C571.172668,251.079346 570.963928,250.593582 571.026245,250.145493 
	C573.834045,229.949234 576.665649,209.756271 579.573059,189.001694 
	C583.313110,189.001694 586.923645,189.001694 591.029968,189.001755 
z"/>
<path fill="#FFFFFF" opacity="1.000000" stroke="none" 
	d="
M802.431030,337.830353 
	C784.295288,330.271332 776.603027,316.769958 778.110901,295.711670 
	C779.834778,271.635712 796.396790,251.106537 819.915710,246.581985 
	C854.099243,240.005753 872.279968,264.546448 868.241455,291.511475 
	C865.492371,309.867188 857.268433,324.460144 840.898682,333.694946 
	C828.918396,340.453522 816.087646,341.706146 802.431030,337.830353 
z"/>
<path fill="#F7F7F7" opacity="1.000000" stroke="none" 
	d="
M710.005981,254.008499 
	C709.847900,254.218613 709.711487,254.456329 709.575134,254.694061 
	C709.572754,254.392288 709.570312,254.090515 709.817017,253.941803 
	C710.066162,254.094864 710.027710,254.036118 710.005981,254.008499 
z"/>
<path fill="#1C323C" opacity="1.000000" stroke="none" 
	d="
M336.229614,320.110199 
	C342.624634,320.789490 345.565186,323.236359 346.319397,328.155884 
	C347.010681,332.664703 344.643250,336.868622 340.377502,338.380371 
	C335.926331,339.957886 332.157104,338.675262 329.395050,334.974945 
	C325.228638,329.393036 328.161438,322.779907 336.229614,320.110199 
z"/>
<path fill="#1C323C" opacity="1.000000" stroke="none" 
	d="
M371.508667,306.527771 
	C375.627228,312.318054 375.107819,317.843475 370.443970,321.155731 
	C366.290161,324.105804 360.816376,323.265350 357.602692,319.183990 
	C355.021759,315.906219 355.170471,310.490906 357.928802,307.307373 
	C361.394135,303.307861 365.704468,302.965302 371.508667,306.527771 
z"/>
</svg>